<svg xmlns="http://www.w3.org/2000/svg" width="14.649" height="19.078" viewBox="0 0 14.649 19.078"><defs><style>.a{fill:#fff;}.b{fill:#efefec;}.c{fill:#8697cb;}.d{fill:#0096e6;}</style></defs><g transform="translate(-6.5)"><path class="a" d="M16.886,0H7c-.275,0-.5.223-.5.656V18.738a.513.513,0,0,0,.5.341H20.651a.513.513,0,0,0,.5-.341V4.421c0-.237-.032-.313-.088-.37L17.1.088A.3.3,0,0,0,16.886,0Z" transform="translate(0 0)"/><path class="b" d="M37.5.151V4.188h4.037Z" transform="translate(-20.439 -0.1)"/><path class="c" d="M13.885,11.681H11.841a.341.341,0,1,1,0-.681h2.044a.341.341,0,1,1,0,.681Z" transform="translate(-3.297 -7.252)"/><path class="c" d="M14.907,16.681H11.841a.341.341,0,0,1,0-.681h3.066a.341.341,0,0,1,0,.681Z" transform="translate(-3.297 -10.549)"/><path class="c" d="M24.841,16.69a.337.337,0,1,1,.242-.1A.358.358,0,0,1,24.841,16.69Z" transform="translate(-11.868 -10.557)"/><path class="c" d="M31.566,16.681H28.841a.341.341,0,0,1,0-.681h2.725a.341.341,0,0,1,0,.681Z" transform="translate(-14.505 -10.549)"/><path class="c" d="M11.841,31.69a.342.342,0,1,1,.242-.583.352.352,0,0,1,.1.242.337.337,0,0,1-.341.341Z" transform="translate(-3.297 -20.447)"/><path class="c" d="M18.566,31.681H15.841a.341.341,0,1,1,0-.681h2.725a.341.341,0,1,1,0,.681Z" transform="translate(-5.934 -20.439)"/><path class="c" d="M41.522,16.681h-.681a.341.341,0,1,1,0-.681h.681a.341.341,0,1,1,0,.681Z" transform="translate(-22.417 -10.549)"/><path class="c" d="M19.336,21.681h-7.5a.341.341,0,0,1,0-.681h7.5a.341.341,0,1,1,0,.681Z" transform="translate(-3.297 -13.846)"/><path class="c" d="M38.885,21.681H36.841a.341.341,0,0,1,0-.681h2.044a.341.341,0,0,1,0,.681Z" transform="translate(-19.78 -13.846)"/><path class="c" d="M13.2,26.681H11.841a.341.341,0,1,1,0-.681H13.2a.341.341,0,0,1,0,.681Z" transform="translate(-3.297 -17.142)"/><path class="c" d="M23.248,26.681H19.841a.341.341,0,0,1,0-.681h3.407a.341.341,0,1,1,0,.681Z" transform="translate(-8.571 -17.142)"/><path class="c" d="M36.907,26.681H33.841a.341.341,0,1,1,0-.681h3.066a.341.341,0,1,1,0,.681Z" transform="translate(-17.802 -17.142)"/><path class="d" d="M20.651,44.792H7a.5.5,0,0,1-.5-.5V39H21.149v5.293A.5.5,0,0,1,20.651,44.792Z" transform="translate(0 -25.713)"/><g transform="translate(9.52 14.568)"><path class="a" d="M18.137,44.545a2.522,2.522,0,0,1-.091.724,1.8,1.8,0,0,1-.231.5,1.185,1.185,0,0,1-.314.319,1.578,1.578,0,0,1-.338.175,1.4,1.4,0,0,1-.3.075,1.988,1.988,0,0,1-.2.016h-1.3V42.924H16.4a1.964,1.964,0,0,1,.761.137,1.581,1.581,0,0,1,.545.366,1.5,1.5,0,0,1,.324.519A1.719,1.719,0,0,1,18.137,44.545Zm-1.658,1.4a.925.925,0,0,0,.82-.363,1.844,1.844,0,0,0,.251-1.053,1.783,1.783,0,0,0-.051-.424.907.907,0,0,0-.2-.38,1.045,1.045,0,0,0-.4-.275,1.715,1.715,0,0,0-.652-.1h-.326v2.6Z" transform="translate(-15.366 -42.868)"/><path class="a" d="M27.941,44.516a2.432,2.432,0,0,1-.109.764,1.558,1.558,0,0,1-.3.55,1.267,1.267,0,0,1-.452.331,1.489,1.489,0,0,1-1.132,0,1.267,1.267,0,0,1-.452-.331,1.561,1.561,0,0,1-.3-.55,2.714,2.714,0,0,1,0-1.525,1.553,1.553,0,0,1,.3-.547,1.3,1.3,0,0,1,.452-.333,1.46,1.46,0,0,1,1.132,0,1.3,1.3,0,0,1,.452.333,1.57,1.57,0,0,1,.3.547A2.419,2.419,0,0,1,27.941,44.516Zm-1.444,1.3a.82.82,0,0,0,.328-.067.734.734,0,0,0,.279-.221,1.119,1.119,0,0,0,.193-.4,2.421,2.421,0,0,0,.075-.608,2.376,2.376,0,0,0-.072-.594,1.192,1.192,0,0,0-.186-.4.718.718,0,0,0-.27-.228.751.751,0,0,0-.319-.07.841.841,0,0,0-.328.065.7.7,0,0,0-.279.221,1.139,1.139,0,0,0-.193.4,2.377,2.377,0,0,0-.075.605,2.407,2.407,0,0,0,.072.6,1.168,1.168,0,0,0,.186.4.747.747,0,0,0,.27.228A.735.735,0,0,0,26.5,45.816Z" transform="translate(-21.771 -42.76)"/><path class="a" d="M37.992,45.9a1.271,1.271,0,0,1-.433.279,1.435,1.435,0,0,1-.522.093,1.409,1.409,0,0,1-.566-.112,1.267,1.267,0,0,1-.452-.331,1.561,1.561,0,0,1-.3-.55,2.714,2.714,0,0,1,0-1.525,1.553,1.553,0,0,1,.3-.547,1.288,1.288,0,0,1,.454-.333,1.386,1.386,0,0,1,.563-.114,1.442,1.442,0,0,1,.522.093,1.273,1.273,0,0,1,.433.279l-.387.345a.706.706,0,0,0-.259-.2.749.749,0,0,0-.3-.061.84.84,0,0,0-.328.065.7.7,0,0,0-.279.221,1.139,1.139,0,0,0-.193.4,2.377,2.377,0,0,0-.075.605,2.407,2.407,0,0,0,.072.6,1.168,1.168,0,0,0,.186.4.747.747,0,0,0,.27.228.728.728,0,0,0,.319.072.818.818,0,0,0,.314-.061.738.738,0,0,0,.268-.2Z" transform="translate(-28.712 -42.76)"/></g></g></svg>