<svg xmlns="http://www.w3.org/2000/svg" width="78.803" height="21" viewBox="0 0 78.803 21"><defs><style>.a{fill:#1059e3;}</style></defs><g transform="translate(10 -23)"><g transform="translate(-14 -6.515)"><path class="a" d="M-6057.353,2798.276a1.28,1.28,0,0,1-.579-1.285l1.049-5.994-4.428-4.234a1.248,1.248,0,0,1-.327-1.333,1.384,1.384,0,0,1,1.121-.88l6.065-.864,2.724-5.414a1.421,1.421,0,0,1,1.274-.756,1.421,1.421,0,0,1,1.274.756l2.724,5.414,6.065.864a1.384,1.384,0,0,1,1.121.88,1.25,1.25,0,0,1-.327,1.333l-4.428,4.234,1.049,5.994a1.279,1.279,0,0,1-.579,1.285,1.483,1.483,0,0,1-.811.239,1.479,1.479,0,0,1-.68-.163l-5.408-2.788-5.408,2.788a1.475,1.475,0,0,1-.679.163A1.484,1.484,0,0,1-6057.353,2798.276Zm7.579-5.361,3.553,1.832-.7-3.98a1.258,1.258,0,0,1,.382-1.129l3.012-2.879-4.1-.585a1.4,1.4,0,0,1-1.061-.738l-1.77-3.518-1.771,3.518a1.4,1.4,0,0,1-1.061.738l-4.1.585,3.011,2.879a1.257,1.257,0,0,1,.382,1.129l-.7,3.98,3.553-1.832a1.479,1.479,0,0,1,.68-.165A1.482,1.482,0,0,1-6049.774,2792.915Zm-35.724,5.361a1.275,1.275,0,0,1-.578-1.285l1.049-5.994-4.43-4.234a1.25,1.25,0,0,1-.327-1.333,1.384,1.384,0,0,1,1.121-.88l6.065-.864,2.726-5.414a1.417,1.417,0,0,1,1.274-.756,1.416,1.416,0,0,1,1.272.756l2.726,5.414,6.065.864a1.384,1.384,0,0,1,1.121.88,1.25,1.25,0,0,1-.327,1.333l-4.43,4.234,1.049,5.994a1.277,1.277,0,0,1-.579,1.285,1.479,1.479,0,0,1-.811.239,1.479,1.479,0,0,1-.68-.163l-5.406-2.788-5.408,2.788a1.482,1.482,0,0,1-.68.163A1.484,1.484,0,0,1-6085.5,2798.276Zm7.579-5.361,3.553,1.832-.7-3.98a1.265,1.265,0,0,1,.382-1.129l3.013-2.879-4.1-.585a1.4,1.4,0,0,1-1.061-.738l-1.769-3.518-1.771,3.518a1.4,1.4,0,0,1-1.061.738l-4.1.585,3.013,2.879a1.258,1.258,0,0,1,.38,1.129l-.7,3.98,3.553-1.832a1.471,1.471,0,0,1,.68-.165A1.477,1.477,0,0,1-6077.919,2792.915Zm-35.722,5.361a1.279,1.279,0,0,1-.579-1.285l1.049-5.994-4.43-4.234a1.251,1.251,0,0,1-.327-1.333,1.387,1.387,0,0,1,1.123-.88l6.063-.864,2.725-5.414a1.418,1.418,0,0,1,1.274-.756,1.421,1.421,0,0,1,1.274.756l2.724,5.414,6.065.864a1.384,1.384,0,0,1,1.121.88,1.248,1.248,0,0,1-.327,1.333l-4.428,4.234,1.049,5.994a1.28,1.28,0,0,1-.579,1.285,1.488,1.488,0,0,1-.811.239,1.483,1.483,0,0,1-.682-.163l-5.406-2.788-5.408,2.788a1.477,1.477,0,0,1-.68.163A1.478,1.478,0,0,1-6113.641,2798.276Z" transform="translate(6122 -2748)"/></g></g></svg>