<svg xmlns="http://www.w3.org/2000/svg" width="48" height="62" viewBox="0 0 48 62"><defs><style>.a{fill:#707070;}</style></defs><g transform="translate(-8 -1)"><path class="a" d="M53,3H46V2a1,1,0,0,0-1-1H19a1,1,0,0,0-1,1V3H11A3,3,0,0,0,8,6V60a3,3,0,0,0,3,3H53a3,3,0,0,0,3-3V6A3,3,0,0,0,53,3ZM20,3H44V9H20Zm25,8a1,1,0,0,0,1-1V9h4V57H14V9h4v1a1,1,0,0,0,1,1Zm9,49a1,1,0,0,1-1,1H11a1,1,0,0,1-1-1V6a1,1,0,0,1,1-1h7V7H13a1,1,0,0,0-1,1V58a1,1,0,0,0,1,1H51a1,1,0,0,0,1-1V8a1,1,0,0,0-1-1H46V5h7a1,1,0,0,1,1,1Z"/><path class="a" d="M17.9,21.553l-1.789.9,2,4a1,1,0,0,0,1.789,0l4-8-1.789-.9L19,23.764Z" transform="translate(2 -2)"/><path class="a" d="M19,41a1,1,0,0,0,.9-.553l4-8-1.789-.9L19,37.764l-1.1-2.211-1.789.9,2,4A1,1,0,0,0,19,41Z" transform="translate(2 -2)"/><path class="a" d="M23.1,45.553,20,51.764l-1.1-2.211-1.789.9,2,4a1,1,0,0,0,1.789,0l4-8Z" transform="translate(1 -2)"/><rect class="a" width="15" height="2" transform="translate(31 23)"/><rect class="a" width="15" height="2" transform="translate(31 37)"/><rect class="a" width="15" height="2" transform="translate(31 51)"/><rect class="a" width="15" height="2" transform="translate(31 47)"/><rect class="a" width="15" height="2" transform="translate(31 33)"/><rect class="a" width="15" height="2" transform="translate(31 19)"/></g></svg>