<svg xmlns="http://www.w3.org/2000/svg" width="44" height="43.991" viewBox="0 0 44 43.991"><defs><style>.a{fill:#707070;}</style></defs><g transform="translate(-11 5.971)"><g transform="translate(11 -6.971)"><path class="a" d="M1.616,43.991A1.624,1.624,0,0,1,0,42.374v-31.7A1.628,1.628,0,0,1,.471,9.522L6.8,3.2V1.616A1.61,1.61,0,0,1,8.4,0H35.577a1.618,1.618,0,0,1,1.616,1.616V3.2L43.52,9.522a1.606,1.606,0,0,1,.471,1.145V15.23l.009.055-.009,27.089a1.618,1.618,0,0,1-1.616,1.616H1.616Zm1.616-3.233H40.758V18.223L22.887,30.137a1.627,1.627,0,0,1-.9.277,1.591,1.591,0,0,1-.877-.277l-13.207-8.8-.074-.028a1.556,1.556,0,0,1-.591-.4l-.046-.046L3.233,18.213ZM10.021,3.981V18.86l11.97,7.989,11.97-7.989V15.646l-.018-.074a2.056,2.056,0,0,1-.046-.332,1.639,1.639,0,0,1,.046-.4l.018-.065V3.944l-.009-.083V3.214l-.647.018H10.03V3.87Zm27.172,9.605h3.556V11.332L37.193,7.786ZM3.233,11.332v2.254H6.788v-5.8Z" transform="translate(0 1)"/><path class="a" d="M16.39,10.85a1.75,1.75,0,0,1-.05-3.5H31.17a1.751,1.751,0,0,1-.02,3.5Z" transform="translate(-1.811 -0.606)"/><path class="a" d="M16.46,18.21a1.751,1.751,0,0,1,.02-3.5H31.17a1.751,1.751,0,0,1-.01,3.5H16.46Z" transform="translate(-1.819 -1.213)"/></g></g></svg>