<svg xmlns="http://www.w3.org/2000/svg" width="38.999" height="47.379" viewBox="0 0 38.999 47.379"><defs><style>.a{fill:#707070;}</style></defs><g transform="translate(-12.44 -4.37)"><path class="a" d="M7.268,47.38A7.268,7.268,0,0,1,0,40.111V10.358A7.268,7.268,0,0,1,7.268,3.09h6.994a5.986,5.986,0,0,1,10.476,0h6.993A7.268,7.268,0,0,1,39,10.358V40.111a7.268,7.268,0,0,1-7.268,7.268ZM4.154,10.358V40.111a3.115,3.115,0,0,0,3.115,3.115H31.731a3.116,3.116,0,0,0,3.116-3.115V10.358a3.115,3.115,0,0,0-3.116-3.115H28.715V9.6a3.634,3.634,0,0,1-3.634,3.634H13.919A3.634,3.634,0,0,1,10.285,9.6V7.243H7.268A3.115,3.115,0,0,0,4.154,10.358ZM14.439,9.086H24.562V7.243H23.326A2.076,2.076,0,0,1,21.3,5.6a1.838,1.838,0,0,0-3.587,0,2.077,2.077,0,0,1-2.03,1.641h-1.24Zm1.8,23.237-4.48-4.48a2.081,2.081,0,0,1,2.933-2.954L17.7,27.9l6.6-6.6a2.078,2.078,0,0,1,2.939,2.938l-8.063,8.083a2.076,2.076,0,0,1-2.938,0Z" transform="translate(12.439 4.369)"/></g></svg>