<svg xmlns="http://www.w3.org/2000/svg" width="46.92" height="59.223" viewBox="0 0 46.92 59.223"><defs><style>.a{fill:#707070;}</style></defs><path class="a" d="M32.414.458A1.433,1.433,0,0,0,31.385,0H8.282A7.815,7.815,0,0,0,.5,7.767V51.455a7.815,7.815,0,0,0,7.782,7.768H39.638a7.815,7.815,0,0,0,7.782-7.768V16.765a1.54,1.54,0,0,0-.415-1Zm.415,4.592L42.6,15.306H36.248a3.407,3.407,0,0,1-3.419-3.4Zm6.809,51.312H8.282a4.955,4.955,0,0,1-4.921-4.907V7.767A4.955,4.955,0,0,1,8.282,2.861H29.968V11.9a6.258,6.258,0,0,0,6.28,6.266h8.311V51.455A4.945,4.945,0,0,1,39.638,56.362Zm0,0" transform="translate(-0.5)"/><path class="a" d="M114.148,401.934H90.6a1.43,1.43,0,1,0,0,2.861h23.56a1.431,1.431,0,1,0-.014-2.861Zm0,0" transform="translate(-78.915 -355.443)"/><path class="a" d="M120.882,181.7l5.894-6.337v15.621a1.431,1.431,0,0,0,2.861,0V175.361l5.894,6.337a1.427,1.427,0,0,0,2.089-1.946l-8.383-9a1.42,1.42,0,0,0-2.088,0l-8.383,9a1.426,1.426,0,0,0,.071,2.017A1.459,1.459,0,0,0,120.882,181.7Zm0,0" transform="translate(-104.746 -150.599)"/></svg>