<svg xmlns="http://www.w3.org/2000/svg" width="12" height="18.637" viewBox="0 0 12 18.637"><defs><style>.a{fill:#bdbdbd;}</style></defs><g transform="translate(-205.965 -43.191)"><path class="a" d="M-10730.255-308.3a2.128,2.128,0,0,1,2.127-2.13,2.129,2.129,0,0,1,2.128,2.13,2.128,2.128,0,0,1-2.128,2.127A2.127,2.127,0,0,1-10730.255-308.3Zm-7.745,0a2.128,2.128,0,0,1,2.127-2.13,2.128,2.128,0,0,1,2.128,2.13,2.127,2.127,0,0,1-2.128,2.127A2.127,2.127,0,0,1-10738-308.3Zm7.745-7.191a2.127,2.127,0,0,1,2.127-2.127,2.128,2.128,0,0,1,2.128,2.127,2.128,2.128,0,0,1-2.128,2.127A2.127,2.127,0,0,1-10730.255-315.49Zm-7.745,0a2.127,2.127,0,0,1,2.127-2.127,2.127,2.127,0,0,1,2.128,2.127,2.127,2.127,0,0,1-2.128,2.127A2.127,2.127,0,0,1-10738-315.49Zm7.745-7.191a2.127,2.127,0,0,1,2.127-2.127,2.128,2.128,0,0,1,2.128,2.127,2.128,2.128,0,0,1-2.128,2.127A2.127,2.127,0,0,1-10730.255-322.682Zm-7.745,0a2.127,2.127,0,0,1,2.127-2.127,2.127,2.127,0,0,1,2.128,2.127,2.127,2.127,0,0,1-2.128,2.127A2.127,2.127,0,0,1-10738-322.682Z" transform="translate(10943.965 368)"/></g></svg>