<svg xmlns="http://www.w3.org/2000/svg" width="41" height="32.12" viewBox="0 0 41 32.12"><defs><style>.a{fill:#707070;}</style></defs><g transform="translate(-72 127)"><path class="a" d="M4.35,32.12A4.353,4.353,0,0,1,0,27.77V4.35A4.353,4.353,0,0,1,4.35,0h32.3A4.36,4.36,0,0,1,41,4.35V27.77a4.353,4.353,0,0,1-4.35,4.35Zm1.07-3.17,30.16.01L26.03,17.78l-3.5,3.32a2.949,2.949,0,0,1-4.06,0l-3.51-3.32ZM28.34,15.59,37.82,26.7l.01-20.08ZM3.17,26.7l9.49-11.11L3.17,6.62ZM20.5,18.64,36.85,3.18H4.15Z" transform="translate(72 -127)"/></g></svg>