<svg xmlns="http://www.w3.org/2000/svg" width="13" height="12.071" viewBox="0 0 13 12.071"><defs><style>.a{fill:#fff;}</style></defs><path class="a" d="M44.507,52.178H40.238l-1.3-3.871a.47.47,0,0,0-.882,0l-1.3,3.871h-4.3a.466.466,0,0,0-.464.464.341.341,0,0,0,.009.078.446.446,0,0,0,.194.328l3.508,2.472-1.346,3.914a.466.466,0,0,0,.16.522.449.449,0,0,0,.261.113.569.569,0,0,0,.29-.1l3.424-2.44,3.424,2.44a.544.544,0,0,0,.29.1.417.417,0,0,0,.258-.113.46.46,0,0,0,.16-.522l-1.346-3.914,3.479-2.5.084-.073a.444.444,0,0,0-.342-.775Zm-3.691,2.684a.815.815,0,0,0-.3.923l.873,2.545a.116.116,0,0,1-.177.133l-2.246-1.6a.811.811,0,0,0-.473-.151.8.8,0,0,0-.47.151l-2.246,1.6a.116.116,0,0,1-.177-.133l.873-2.545a.818.818,0,0,0-.3-.929L33.828,53.2a.117.117,0,0,1,.067-.212h2.864a.811.811,0,0,0,.769-.554l.859-2.559a.117.117,0,0,1,.221,0l.859,2.559a.811.811,0,0,0,.769.554h2.823a.115.115,0,0,1,.067.209Z" transform="translate(-32 -48)"/></svg>