<svg xmlns="http://www.w3.org/2000/svg" width="16.187" height="18.5" viewBox="0 0 16.187 18.5"><defs><style>.a{fill:#e2e5e7;}.b{fill:#b0b7bd;}.c{fill:#cad1d8;}.d{fill:#f15642;}.e{fill:#fff;}</style></defs><g transform="translate(-32)"><path class="a" d="M97.156,0A1.16,1.16,0,0,0,96,1.156V17.343A1.16,1.16,0,0,0,97.156,18.5h11.562a1.16,1.16,0,0,0,1.156-1.156V4.625L105.25,0Z" transform="translate(-61.688)"/><path class="b" d="M353.156,4.625h3.469L352,0V3.469A1.16,1.16,0,0,0,353.156,4.625Z" transform="translate(-308.438)"/><path class="c" d="M387.469,131.469,384,128h3.469Z" transform="translate(-339.281 -123.375)"/><path class="d" d="M45.875,246.359a.58.58,0,0,1-.578.578H32.578a.58.58,0,0,1-.578-.578v-5.781a.58.58,0,0,1,.578-.578H45.3a.58.58,0,0,1,.578.578Z" transform="translate(0 -231.328)"/><g transform="translate(34.52 10.634)"><path class="e" d="M101.744,294.639a.318.318,0,0,1,.314-.319h1.068a1.156,1.156,0,0,1,0,2.311h-.772v.611a.29.29,0,0,1-.3.319.311.311,0,0,1-.314-.319Zm.61.263v1.152h.772a.576.576,0,0,0,0-1.152Z" transform="translate(-101.744 -294.32)"/><path class="e" d="M188.143,298.671a.289.289,0,0,1-.319-.286v-2.626a.314.314,0,0,1,.319-.287H189.2a1.6,1.6,0,0,1,.042,3.2Zm.291-2.634v2.071h.767a1.039,1.039,0,0,0,0-2.071Z" transform="translate(-184.714 -295.43)"/><path class="e" d="M287.741,296.058v.735h1.179a.357.357,0,0,1,.333.328.321.321,0,0,1-.333.278h-1.179v.971a.274.274,0,0,1-.277.286.294.294,0,0,1-.328-.286v-2.626a.292.292,0,0,1,.328-.287h1.623a.288.288,0,0,1,.324.287.319.319,0,0,1-.324.314h-1.346Z" transform="translate(-280.437 -295.415)"/></g><path class="c" d="M106.984,416.578H96v.578h10.984a.58.58,0,0,0,.578-.578V416A.58.58,0,0,1,106.984,416.578Z" transform="translate(-61.688 -400.969)"/></g></svg>