<svg xmlns="http://www.w3.org/2000/svg" width="13" height="12.072" viewBox="0 0 13 12.072"><defs><style>.a{fill:#ffff1a;}</style></defs><path class="a" d="M44.507,52.179H40.238l-1.3-3.871a.47.47,0,0,0-.882,0l-1.3,3.871h-4.3a.466.466,0,0,0-.464.464.341.341,0,0,0,.009.078.446.446,0,0,0,.194.328l3.508,2.472-1.346,3.915a.466.466,0,0,0,.16.522.449.449,0,0,0,.261.113.569.569,0,0,0,.29-.1l3.424-2.44,3.424,2.44a.544.544,0,0,0,.29.1.417.417,0,0,0,.258-.113.46.46,0,0,0,.16-.522l-1.346-3.915,3.479-2.5.084-.073a.444.444,0,0,0-.342-.775Z" transform="translate(-32 -48)"/></svg>